<?xml version="1.0" encoding="utf-8"?>
<!-- Generator: Adobe Illustrator 27.1.1, SVG Export Plug-In . SVG Version: 6.00 Build 0)  -->
<svg version="1.0" id="Layer_1" xmlns="http://www.w3.org/2000/svg" xmlns:xlink="http://www.w3.org/1999/xlink" x="0px" y="0px"
	 viewBox="0 0 450 400" style="enable-background:new 0 0 450 400;" xml:space="preserve">
<style type="text/css">
	.st0{display:none;}
	.st1{display:inline;fill:#FFC800;}
	.st2{display:inline;}
	.st3{fill:#FFC800;}
	.st4{display:inline;fill:#FFDC00;}
	.st5{display:inline;fill:#FFFFFF;}
	.st6{fill:#FFDC00;}
	.st7{fill:#FFFFFF;}
	.st8{display:inline;fill:#00AAC8;}
	.st9{display:inline;fill:#00B4D2;}
	.st10{fill:#96DCF0;}
	.st11{fill:#A0E6FA;}
	.st12{display:inline;fill:#96DCF0;}
	.st13{display:inline;fill:#A0E6FA;}
	.st14{display:inline;fill:#FFDC64;}
	.st15{display:inline;fill:#FFE664;}
	.st16{fill:#FFDC64;}
	.st17{fill:#FFE664;}
	.st18{display:inline;fill:#AAAAAA;}
	.st19{display:inline;fill:#DCDCDC;}
	.st20{fill:#C8C8C8;}
	.st21{display:inline;fill:#C8C8C8;}
	.st22{display:inline;fill:#E1E1E1;}
	.st23{display:inline;fill:#EBEBEB;}
	.st24{fill:#EBEBEB;}
	.st25{display:inline;fill:#F5F5F5;}
	.st26{fill:#F5F5F5;}
	.st27{fill:#00AAC8;}
	.st28{fill:#00B4D2;}
	.st29{display:inline;fill:#FFF000;}
	.st30{fill:#FFF000;}
	.st31{display:inline;fill:#646464;}
	.st32{display:inline;fill:#FF5000;}
	.st33{display:inline;fill:#505050;}
	.st34{display:inline;fill:#FF6400;}
	.st35{display:inline;fill:#AAF0FF;}
	.st36{fill:#646464;}
</style>
<g class="st0">
	<path class="st1" d="M338.73,200.01c0,57.87-50.92,104.79-113.73,104.79s-113.73-46.91-113.73-104.79
		c0-57.87,50.92-104.78,113.73-104.78S338.73,142.14,338.73,200.01z"/>
	<g class="st2">
		<g>
			<path class="st3" d="M321.16,274.48c5.63-4.97,17.47-22.53,21.81-34.75c11.8,9.83,25.84,25.67,35.57,42.16
				C358.28,282.33,336.21,279,321.16,274.48z"/>
		</g>
		<g>
			<path class="st3" d="M267.81,308.82c8.97-3.2,7.63-2.53,19.9-8.46c10.42-6.38,2.91-0.91,17.99-11.57
				c9,27.03,7.89,52.93,7.89,52.93S288.44,329.51,267.81,308.82z"/>
		</g>
		<g>
			<path class="st3" d="M203.03,314.08c27.64,3.08,29.1,1.09,36.89,0.95c4.06-0.51,6.75-1.03,6.75-1.03
				c-4.14,17.47-13.31,36.74-21.89,49.48C214.64,347.94,207.11,330.47,203.03,314.08z"/>
		</g>
		<g>
			<path class="st3" d="M144.17,288.61c5.4,5.19,24.45,16.09,37.72,20.09c-11.18,11.4-28.33,24.04-45.76,32.77
				C135.64,322.53,139.36,302.19,144.17,288.61z"/>
		</g>
		<g>
			<path class="st3" d="M106.9,239.45c3.48,8.27,2.75,7.03,9.18,18.33c6.92,9.59,0.99,2.68,12.56,16.57
				c-29.34,8.29-57.45,7.27-57.45,7.27S84.45,258.46,106.9,239.45z"/>
		</g>
		<g>
			<path class="st3" d="M101.19,179.77c-1.92,14.69-1.54,9.12-1.8,20.14c-0.35,5.06,0.68,10.07,0.77,13.85
				c0.55,3.74,1.12,6.22,1.13,6.22c-18.84-3.79-39.7-12.16-53.71-20.17C64.38,190.5,83.47,183.52,101.19,179.77z"/>
		</g>
		<g>
			<path class="st3" d="M128.84,125.54c0,0-2,1.76-4.26,4.93c-6.63,8.46-13.45,18.29-17.55,29.82c-12.37-10.3-26.1-26.1-35.57-42.16
				C91.72,117.69,113.56,120.95,128.84,125.54z"/>
		</g>
		<g>
			<path class="st3" d="M182.19,91.2c-20.3,7.25-28.48,13.38-37.88,20.04c-9-27.04-7.9-52.94-7.9-52.94S161.65,70.61,182.19,91.2z"
				/>
		</g>
		<g>
			<path class="st3" d="M246.97,85.95c-27.65-3.08-29.1-1.1-36.9-0.95c-4.06,0.51-6.75,1.04-6.75,1.04
				c3.99-16.89,12.77-35.95,21.89-49.48C234.37,50.56,242.54,68.17,246.97,85.95z"/>
		</g>
		<g>
			<path class="st3" d="M305.83,111.42c-5.33-5.13-24.36-16.06-37.71-20.09c10.67-10.87,27.86-23.81,45.76-32.77
				C314.36,77.49,310.64,97.83,305.83,111.42z"/>
		</g>
		<g>
			<path class="st3" d="M343.1,160.57c-3.47-8.27-2.75-7.03-9.18-18.34c-6.92-9.59-0.99-2.68-12.57-16.57
				c29.34-8.3,57.45-7.27,57.45-7.27S365.49,141.62,343.1,160.57z"/>
		</g>
		<g>
			<path class="st3" d="M348.81,220.25c1.92-14.68,1.54-9.12,1.8-20.14c0.35-5.05-0.69-10.06-0.77-13.85
				c-0.55-3.74-1.12-6.22-1.13-6.22c18.97,3.81,39.88,12.27,53.71,20.17C387.21,208.64,368.11,216.18,348.81,220.25z"/>
		</g>
	</g>
	<path class="st1" d="M338.71,199.99c0,57.91-50.88,104.78-113.73,104.78c-0.08,0-0.08,0-0.15,0
		c-62.7-0.07-113.58-46.94-113.58-104.78c0-57.77,50.88-104.72,113.58-104.79c0.07,0,0.07,0,0.15,0
		C287.84,95.21,338.71,142.15,338.71,199.99z"/>
	<g class="st2">
		<g>
			<path class="st3" d="M378.52,281.86c-20.24,0.49-42.31-2.86-57.32-7.4c5.61-4.96,17.44-22.49,21.76-34.72
				C354.79,249.59,368.81,265.38,378.52,281.86z"/>
		</g>
		<g>
			<path class="st3" d="M313.61,341.73c0,0-25.17-12.22-45.79-32.9c8.95-3.21,7.66-2.52,19.86-8.45c10.47-6.36,2.96-0.91,18.05-11.6
				C314.68,315.81,313.61,341.73,313.61,341.73z"/>
		</g>
		<g>
			<path class="st3" d="M246.66,314c-4.1,17.4-13.19,36.61-21.84,49.32c0,0.07-0.08,0.07-0.08,0.14
				c-10.08-15.51-17.66-32.97-21.69-49.39c10.39,1.11,17.06,1.61,21.76,1.67c7.81,0.21,10.24-0.62,15.09-0.7
				C244.01,314.56,246.66,314,246.66,314z"/>
		</g>
		<g>
			<path class="st3" d="M144.17,288.61c5.4,5.19,24.45,16.09,37.72,20.09c-11.18,11.4-28.33,24.04-45.76,32.77
				C135.64,322.53,139.36,302.19,144.17,288.61z"/>
		</g>
		<g>
			<path class="st3" d="M106.9,239.45c3.48,8.27,2.75,7.03,9.18,18.33c6.92,9.59,0.99,2.68,12.56,16.57
				c-29.34,8.29-57.45,7.27-57.45,7.27S84.45,258.46,106.9,239.45z"/>
		</g>
		<g>
			<path class="st3" d="M101.19,179.77c-1.92,14.69-1.54,9.12-1.8,20.14c-0.35,5.06,0.68,10.07,0.77,13.85
				c0.55,3.74,1.12,6.22,1.13,6.22c-18.84-3.79-39.7-12.16-53.71-20.17C64.38,190.5,83.47,183.52,101.19,179.77z"/>
		</g>
		<g>
			<path class="st3" d="M128.84,125.54c0,0-2,1.76-4.26,4.93c-6.63,8.46-13.45,18.29-17.55,29.82c-12.37-10.3-26.1-26.1-35.57-42.16
				C91.72,117.69,113.56,120.95,128.84,125.54z"/>
		</g>
		<g>
			<path class="st3" d="M182.19,91.2c-20.3,7.25-28.48,13.38-37.88,20.04c-9-27.04-7.9-52.94-7.9-52.94S161.65,70.61,182.19,91.2z"
				/>
		</g>
		<g>
			<path class="st3" d="M246.97,85.92c-10.61-1.19-17.44-1.61-22.14-1.68c-7.58-0.14-10.01,0.7-14.79,0.77
				c-4.02,0.49-6.74,1.05-6.74,1.05c3.94-16.7,12.59-35.49,21.53-48.97c0.15-0.21,0.23-0.35,0.38-0.56
				C234.38,50.57,242.57,68.17,246.97,85.92z"/>
		</g>
		<g>
			<path class="st3" d="M305.81,111.41c-5.31-5.1-24.34-16.06-37.68-20.12c10.69-10.83,27.83-23.75,45.72-32.76
				C314.37,77.46,310.66,97.86,305.81,111.41z"/>
		</g>
		<g>
			<path class="st3" d="M378.83,118.4c0,0-13.35,23.2-35.71,42.2c-3.49-8.31-2.73-7.05-9.17-18.37c-6.97-9.57-0.99-2.66-12.59-16.56
				C350.69,117.35,378.83,118.4,378.83,118.4z"/>
		</g>
		<g>
			<path class="st3" d="M350.61,200.13c0.31-5.1-0.68-10.06-0.76-13.9c-0.6-3.7-1.14-6.22-1.14-6.22
				c18.96,3.84,39.88,12.29,53.68,20.19c-15.16,8.45-34.27,16-53.61,20.05C350.77,205.58,350.31,211.1,350.61,200.13z"/>
		</g>
	</g>
	<path class="st4" d="M246.97,85.92c-10.61-1.19-17.44-1.61-22.14-1.68V37.08c0.15-0.21,0.23-0.35,0.38-0.56
		C234.38,50.57,242.57,68.17,246.97,85.92z"/>
	<path class="st4" d="M239.92,315.04c4.09-0.49,6.75-1.05,6.75-1.05c-4.1,17.4-13.19,36.61-21.84,49.32v-47.57
		C232.64,315.95,235.07,315.12,239.92,315.04z"/>
	<path class="st4" d="M224.98,304.78c-0.08,0-0.08,0-0.15,0V95.21c0.07,0,0.07,0,0.15,0c62.85,0,113.73,46.94,113.73,104.79
		C338.71,257.9,287.84,304.78,224.98,304.78z"/>
	<path class="st4" d="M305.73,288.78c8.95,27.03,7.88,52.95,7.88,52.95s-25.17-12.22-45.79-32.9c8.95-3.21,7.66-2.52,19.86-8.45
		C298.15,294.02,290.64,299.46,305.73,288.78z"/>
	<path class="st4" d="M305.81,111.41c-5.31-5.1-24.34-16.06-37.68-20.12c10.69-10.83,27.83-23.75,45.72-32.76
		C314.37,77.46,310.66,97.86,305.81,111.41z"/>
	<path class="st4" d="M378.52,281.86c-20.24,0.49-42.31-2.86-57.32-7.4c5.61-4.96,17.44-22.49,21.76-34.72
		C354.79,249.59,368.81,265.38,378.52,281.86z"/>
	<path class="st4" d="M333.94,142.22c-6.97-9.57-0.99-2.66-12.59-16.56c29.34-8.31,57.47-7.27,57.47-7.27s-13.35,23.2-35.71,42.2
		C339.63,152.28,340.38,153.54,333.94,142.22z"/>
	<path class="st4" d="M350.61,200.13c0.31-5.1-0.68-10.06-0.76-13.9c-0.6-3.7-1.14-6.22-1.14-6.22
		c18.96,3.84,39.88,12.29,53.68,20.19c-15.16,8.45-34.27,16-53.61,20.05C350.77,205.58,350.31,211.1,350.61,200.13z"/>
	<path class="st5" d="M325.67,199.99h-11.83c0-45.14-39.86-81.87-88.86-81.87l-0.13-10.9h0.13
		C280.5,107.22,325.67,148.84,325.67,199.99z"/>
	<path class="st1" d="M290.72,199.99c0,33.46-29.42,60.56-65.74,60.56c-0.08,0-0.08,0-0.08,0h-0.07
		c-36.24-0.14-65.58-27.18-65.58-60.56c0-33.39,29.34-60.43,65.58-60.57h0.07c0,0,0,0,0.08,0
		C261.3,139.43,290.72,166.6,290.72,199.99z"/>
	<path class="st4" d="M224.83,139.43v121.13c-36.24-0.14-65.58-27.18-65.58-60.56C159.25,166.6,188.59,139.57,224.83,139.43z"/>
</g>
<g class="st0">
	<g class="st2">
		<path class="st3" d="M200.02,143.72c0,40.33-34.98,73.02-78.14,73.02c-43.14,0-78.13-32.69-78.13-73.02
			c0-40.33,34.99-73.03,78.13-73.03C165.04,70.7,200.02,103.39,200.02,143.72z"/>
		<g>
			<g>
				<path class="st3" d="M187.94,195.61c3.87-3.46,12-15.7,14.98-24.21c8.11,6.85,17.75,17.89,24.44,29.38
					C213.43,201.09,198.28,198.77,187.94,195.61z"/>
			</g>
			<g>
				<path class="st3" d="M151.29,219.55c6.17-2.23,5.24-1.76,13.67-5.9c7.15-4.44,2-0.63,12.35-8.06
					c6.19,18.84,5.43,36.89,5.43,36.89S165.46,233.96,151.29,219.55z"/>
			</g>
			<g>
				<path class="st3" d="M106.79,223.21c19,2.14,20,0.76,25.35,0.66c2.79-0.35,4.64-0.72,4.64-0.72
					c-2.85,12.18-9.15,25.61-15.04,34.48C114.77,246.81,109.59,234.64,106.79,223.21z"/>
			</g>
			<g>
				<path class="st3" d="M66.36,205.46c3.71,3.62,16.8,11.21,25.9,14c-7.68,7.94-19.46,16.75-31.43,22.84
					C60.49,229.11,63.05,214.93,66.36,205.46z"/>
			</g>
			<g>
				<path class="st3" d="M40.74,171.21c2.39,5.76,1.89,4.9,6.32,12.77c4.75,6.69,0.68,1.87,8.63,11.55
					c-20.16,5.79-39.47,5.07-39.47,5.07S25.33,184.45,40.74,171.21z"/>
			</g>
			<g>
				<path class="st3" d="M36.83,129.62c-1.32,10.24-1.06,6.36-1.24,14.04c-0.24,3.52,0.47,7.01,0.53,9.65
					c0.38,2.61,0.77,4.33,0.77,4.33C23.95,155,9.62,149.16,0,143.58C11.54,137.1,24.66,132.23,36.83,129.62z"/>
			</g>
			<g>
				<path class="st3" d="M55.82,91.82c0,0-1.37,1.23-2.93,3.43c-4.55,5.9-9.24,12.75-12.06,20.78c-8.5-7.18-17.92-18.19-24.44-29.38
					C30.33,86.35,45.32,88.62,55.82,91.82z"/>
			</g>
			<g>
				<path class="st3" d="M92.47,67.89c-13.94,5.05-19.56,9.33-26.02,13.97c-6.19-18.84-5.43-36.89-5.43-36.89
					S78.36,53.54,92.47,67.89z"/>
			</g>
			<g>
				<path class="st3" d="M136.97,64.23c-19-2.15-19.99-0.77-25.35-0.66c-2.78,0.35-4.63,0.72-4.63,0.72
					c2.74-11.77,8.77-25.05,15.04-34.48C128.31,39.57,133.94,51.84,136.97,64.23z"/>
			</g>
			<g>
				<path class="st3" d="M177.41,81.98c-3.67-3.58-16.73-11.2-25.91-14c7.33-7.58,19.14-16.59,31.43-22.84
					C183.27,58.34,180.71,72.51,177.41,81.98z"/>
			</g>
			<g>
				<path class="st3" d="M203.02,116.23c-2.39-5.76-1.89-4.9-6.31-12.78c-4.75-6.68-0.68-1.87-8.63-11.54
					c20.16-5.78,39.47-5.07,39.47-5.07S218.4,103.02,203.02,116.23z"/>
			</g>
			<g>
				<path class="st3" d="M206.93,157.82c1.33-10.23,1.06-6.35,1.24-14.04c0.24-3.52-0.47-7.01-0.53-9.65
					c-0.38-2.61-0.77-4.34-0.78-4.34c13.04,2.67,27.4,8.55,36.9,14.06C233.32,149.73,220.19,154.98,206.93,157.82z"/>
			</g>
		</g>
		<path class="st3" d="M200,143.71c0,40.36-34.96,73.02-78.14,73.02c-0.06,0-0.06,0-0.1,0c-43.08-0.04-78.03-32.71-78.03-73.02
			c0-40.26,34.95-72.98,78.03-73.02c0.05,0,0.05,0,0.1,0C165.05,70.69,200,103.4,200,143.71z"/>
		<g>
			<g>
				<path class="st3" d="M227.35,200.76c-13.92,0.34-29.07-2-39.38-5.16c3.86-3.45,11.98-15.67,14.94-24.19
					C211.04,178.27,220.68,189.27,227.35,200.76z"/>
			</g>
			<g>
				<path class="st3" d="M182.76,242.48c0,0-17.3-8.52-31.46-22.93c6.15-2.24,5.26-1.76,13.64-5.89c7.19-4.43,2.03-0.63,12.4-8.08
					C183.49,224.42,182.76,242.48,182.76,242.48z"/>
			</g>
			<g>
				<path class="st3" d="M136.77,223.15c-2.81,12.13-9.07,25.51-15,34.37c0,0.05-0.05,0.05-0.05,0.1
					c-6.93-10.8-12.14-22.98-14.9-34.42c7.14,0.78,11.72,1.12,14.95,1.17c5.36,0.15,7.03-0.43,10.36-0.49
					C134.94,223.55,136.77,223.15,136.77,223.15z"/>
			</g>
			<g>
				<path class="st3" d="M66.36,205.46c3.71,3.62,16.8,11.21,25.9,14c-7.68,7.94-19.46,16.75-31.43,22.84
					C60.49,229.11,63.05,214.93,66.36,205.46z"/>
			</g>
			<g>
				<path class="st3" d="M40.74,171.21c2.39,5.76,1.89,4.9,6.32,12.77c4.75,6.69,0.68,1.87,8.63,11.55
					c-20.16,5.79-39.47,5.07-39.47,5.07S25.33,184.45,40.74,171.21z"/>
			</g>
			<g>
				<path class="st3" d="M36.83,129.62c-1.32,10.24-1.06,6.36-1.24,14.04c-0.24,3.52,0.47,7.01,0.53,9.65
					c0.38,2.61,0.77,4.33,0.77,4.33C23.95,155,9.62,149.16,0,143.58C11.54,137.1,24.66,132.23,36.83,129.62z"/>
			</g>
			<g>
				<path class="st3" d="M55.82,91.82c0,0-1.37,1.23-2.93,3.43c-4.55,5.9-9.24,12.75-12.06,20.78c-8.5-7.18-17.92-18.19-24.44-29.38
					C30.33,86.35,45.32,88.62,55.82,91.82z"/>
			</g>
			<g>
				<path class="st3" d="M92.47,67.89c-13.94,5.05-19.56,9.33-26.02,13.97c-6.19-18.84-5.43-36.89-5.43-36.89
					S78.36,53.54,92.47,67.89z"/>
			</g>
			<g>
				<path class="st3" d="M136.97,64.21c-7.29-0.83-11.98-1.12-15.21-1.17c-5.21-0.09-6.88,0.49-10.16,0.54
					c-2.76,0.34-4.63,0.73-4.63,0.73c2.71-11.63,8.65-24.73,14.79-34.13c0.1-0.15,0.15-0.24,0.26-0.39
					C128.32,39.58,133.95,51.84,136.97,64.21z"/>
			</g>
			<g>
				<path class="st3" d="M177.39,81.97c-3.65-3.55-16.72-11.19-25.89-14.02c7.34-7.54,19.12-16.55,31.41-22.83
					C183.28,58.32,180.73,72.53,177.39,81.97z"/>
			</g>
			<g>
				<path class="st3" d="M227.56,86.84c0,0-9.17,16.17-24.53,29.41c-2.4-5.79-1.88-4.92-6.3-12.81c-4.79-6.66-0.68-1.85-8.65-11.54
					C208.23,86.11,227.56,86.84,227.56,86.84z"/>
			</g>
			<g>
				<path class="st3" d="M208.17,143.81c0.21-3.56-0.47-7.02-0.51-9.69c-0.42-2.58-0.79-4.33-0.79-4.33
					c13.03,2.68,27.4,8.56,36.88,14.06c-10.42,5.89-23.54,11.15-36.82,13.97C208.28,147.6,207.97,151.45,208.17,143.81z"/>
			</g>
		</g>
		<path class="st6" d="M136.97,64.21c-7.29-0.83-11.98-1.12-15.21-1.17V30.18c0.1-0.15,0.15-0.24,0.26-0.39
			C128.32,39.58,133.95,51.84,136.97,64.21z"/>
		<path class="st6" d="M132.12,223.88c2.82-0.33,4.64-0.73,4.64-0.73c-2.81,12.13-9.07,25.51-15,34.37v-33.16
			C127.13,224.52,128.8,223.94,132.12,223.88z"/>
		<path class="st6" d="M121.87,216.73c-0.06,0-0.06,0-0.1,0V70.69c0.05,0,0.05,0,0.1,0c43.18,0,78.14,32.71,78.14,73.02
			C200,184.07,165.05,216.73,121.87,216.73z"/>
		<path class="st6" d="M177.34,205.58c6.15,18.84,5.42,36.9,5.42,36.9s-17.3-8.52-31.46-22.93c6.15-2.24,5.26-1.76,13.64-5.89
			C172.14,209.24,166.98,213.03,177.34,205.58z"/>
		<path class="st6" d="M177.39,81.97c-3.65-3.55-16.72-11.19-25.89-14.02c7.34-7.54,19.12-16.55,31.41-22.83
			C183.28,58.32,180.73,72.53,177.39,81.97z"/>
		<path class="st6" d="M227.35,200.76c-13.92,0.34-29.07-2-39.38-5.16c3.86-3.45,11.98-15.67,14.94-24.19
			C211.04,178.27,220.68,189.27,227.35,200.76z"/>
		<path class="st6" d="M196.72,103.44c-4.79-6.66-0.68-1.85-8.65-11.54c20.16-5.79,39.48-5.06,39.48-5.06s-9.17,16.17-24.53,29.41
			C200.63,110.46,201.15,111.33,196.72,103.44z"/>
		<path class="st6" d="M208.17,143.81c0.21-3.56-0.47-7.02-0.51-9.69c-0.42-2.58-0.79-4.33-0.79-4.33
			c13.03,2.68,27.4,8.56,36.88,14.06c-10.42,5.89-23.54,11.15-36.82,13.97C208.28,147.6,207.97,151.45,208.17,143.81z"/>
		<path class="st7" d="M191.41,143.71h-8.87c0-31.27-27.22-56.71-60.67-56.71l-0.08-8.29h0.08
			C160.21,78.7,191.41,107.86,191.41,143.71z"/>
	</g>
	<path class="st8" d="M450,246.31c0,17.58-7.6,33.53-19.97,45.03c-12.37,11.5-29.37,18.66-48.19,18.66H96.75
		c-32.68,0-59.22-24.8-59.22-55.35c0-30.55,26.54-55.3,59.22-55.3c10.5,0,20.32,2.54,28.89,7.05c-1.39-3.6-2.23-7.49-2.23-11.55
		c0-18.66,16.17-33.7,36.13-33.7c11.76,0,22.25,5.29,28.83,13.52c3.14-42.22,39.14-75.98,84.31-78.8c2.05-0.17,4.1-0.23,6.21-0.23
		c50.18,0,90.9,38.05,90.9,84.94c0,1.07-0.13,2.08-0.19,3.16c3.97-0.68,8.08-1.08,12.24-1.08C419.48,182.66,450,211.19,450,246.31z"
		/>
	<path class="st9" d="M450,246.31c0,17.58-7.6,33.53-19.97,45.03c-12.37,11.5-29.37,18.66-48.19,18.66H272.68V95.87
		c2.05-0.17,4.1-0.23,6.21-0.23c50.18,0,90.9,38.05,90.9,84.94c0,1.07-0.13,2.08-0.19,3.16c3.97-0.68,8.08-1.08,12.24-1.08
		C419.48,182.66,450,211.19,450,246.31z"/>
	<path class="st5" d="M347.75,180.8h-8.87c0-31.02-27.01-56.26-60.2-56.26c-1.89,0-3.76,0.09-5.59,0.24l-0.8-8.26
		c2.1-0.18,4.24-0.28,6.4-0.28C316.76,116.24,347.75,145.2,347.75,180.8z"/>
</g>
<g class="st0">
	<g class="st2">
		<path class="st3" d="M200.01,128.97c0,38.25-34.98,69.25-78.13,69.25c-43.15,0-78.13-31-78.13-69.25
			c0-38.25,34.98-69.25,78.13-69.25C165.03,59.73,200.01,90.73,200.01,128.97z"/>
		<g>
			<g>
				<path class="st3" d="M187.94,178.19c3.87-3.29,12-14.89,14.99-22.97c8.11,6.5,17.75,16.97,24.44,27.87
					C213.44,183.38,198.28,181.18,187.94,178.19z"/>
			</g>
			<g>
				<path class="st3" d="M151.3,200.89c6.16-2.12,5.24-1.67,13.66-5.59c7.16-4.21,2-0.6,12.36-7.65
					c6.19,17.87,5.42,34.99,5.42,34.99S165.46,214.56,151.3,200.89z"/>
			</g>
			<g>
				<path class="st3" d="M106.79,204.36c18.99,2.03,19.99,0.72,25.35,0.63c2.78-0.34,4.63-0.69,4.63-0.69
					c-2.84,11.55-9.15,24.28-15.04,32.71C114.77,226.74,109.6,215.2,106.79,204.36z"/>
			</g>
			<g>
				<path class="st3" d="M66.35,187.53c3.71,3.43,16.8,10.63,25.91,13.28c-7.68,7.54-19.46,15.89-31.44,21.66
					C60.49,209.95,63.05,196.51,66.35,187.53z"/>
			</g>
			<g>
				<path class="st3" d="M40.75,155.04c2.39,5.47,1.89,4.65,6.31,12.12c4.75,6.34,0.68,1.77,8.63,10.95
					c-20.16,5.48-39.47,4.81-39.47,4.81S25.32,167.6,40.75,155.04z"/>
			</g>
			<g>
				<path class="st3" d="M36.83,115.6c-1.33,9.71-1.06,6.03-1.24,13.32c-0.24,3.34,0.47,6.65,0.53,9.15
					c0.38,2.47,0.77,4.11,0.78,4.11c-12.95-2.5-27.28-8.03-36.9-13.33C11.54,122.69,24.66,118.08,36.83,115.6z"/>
			</g>
			<g>
				<path class="st3" d="M55.82,79.76c0,0-1.37,1.17-2.93,3.25c-4.56,5.6-9.24,12.09-12.06,19.71c-8.5-6.81-17.93-17.25-24.44-27.86
					C30.33,74.57,45.32,76.72,55.82,79.76z"/>
			</g>
			<g>
				<path class="st3" d="M92.47,57.06c-13.94,4.79-19.56,8.85-26.02,13.25c-6.18-17.87-5.42-34.99-5.42-34.99
					S78.36,43.45,92.47,57.06z"/>
			</g>
			<g>
				<path class="st3" d="M136.98,53.59c-19-2.03-19.99-0.72-25.35-0.63c-2.79,0.34-4.63,0.69-4.63,0.69
					c2.74-11.16,8.77-23.76,15.04-32.71C128.32,30.2,133.93,41.84,136.98,53.59z"/>
			</g>
			<g>
				<path class="st3" d="M177.41,70.42c-3.66-3.39-16.73-10.62-25.9-13.28c7.32-7.18,19.14-15.73,31.43-21.66
					C183.27,48,180.71,61.44,177.41,70.42z"/>
			</g>
			<g>
				<path class="st3" d="M203.02,102.91c-2.38-5.46-1.89-4.65-6.31-12.12c-4.75-6.34-0.68-1.77-8.63-10.95
					c20.16-5.48,39.47-4.8,39.47-4.8S218.4,90.38,203.02,102.91z"/>
			</g>
			<g>
				<path class="st3" d="M206.94,142.35c1.32-9.7,1.06-6.03,1.24-13.31c0.24-3.34-0.47-6.65-0.53-9.15
					c-0.37-2.47-0.77-4.11-0.77-4.11c13.03,2.52,27.4,8.11,36.9,13.33C233.32,134.68,220.19,139.66,206.94,142.35z"/>
			</g>
		</g>
		<path class="st3" d="M200,128.96c0,38.27-34.95,69.25-78.13,69.25c-0.06,0-0.06,0-0.1,0c-43.08-0.05-78.03-31.02-78.03-69.25
			c0-38.18,34.95-69.21,78.03-69.25c0.05,0,0.05,0,0.1,0C165.05,59.71,200,90.73,200,128.96z"/>
		<g>
			<g>
				<path class="st3" d="M227.35,183.07c-13.91,0.32-29.07-1.89-39.38-4.9c3.86-3.28,11.98-14.86,14.95-22.94
					C211.04,161.74,220.68,172.17,227.35,183.07z"/>
			</g>
			<g>
				<path class="st3" d="M182.76,222.64c0,0-17.29-8.08-31.46-21.75c6.15-2.12,5.27-1.67,13.65-5.59c7.19-4.2,2.03-0.6,12.39-7.66
					C183.49,205.51,182.76,222.64,182.76,222.64z"/>
			</g>
			<g>
				<path class="st3" d="M136.77,204.31c-2.82,11.5-9.07,24.19-15,32.6c0,0.05-0.06,0.05-0.06,0.09
					c-6.93-10.25-12.14-21.79-14.9-32.64c7.14,0.74,11.72,1.06,14.95,1.11c5.36,0.14,7.03-0.41,10.36-0.46
					C134.94,204.68,136.77,204.31,136.77,204.31z"/>
			</g>
			<g>
				<path class="st3" d="M66.35,187.53c3.71,3.43,16.8,10.63,25.91,13.28c-7.68,7.54-19.46,15.89-31.44,21.66
					C60.49,209.95,63.05,196.51,66.35,187.53z"/>
			</g>
			<g>
				<path class="st3" d="M40.75,155.04c2.39,5.47,1.89,4.65,6.31,12.12c4.75,6.34,0.68,1.77,8.63,10.95
					c-20.16,5.48-39.47,4.81-39.47,4.81S25.32,167.6,40.75,155.04z"/>
			</g>
			<g>
				<path class="st3" d="M36.83,115.6c-1.33,9.71-1.06,6.03-1.24,13.32c-0.24,3.34,0.47,6.65,0.53,9.15
					c0.38,2.47,0.77,4.11,0.78,4.11c-12.95-2.5-27.28-8.03-36.9-13.33C11.54,122.69,24.66,118.08,36.83,115.6z"/>
			</g>
			<g>
				<path class="st3" d="M55.82,79.76c0,0-1.37,1.17-2.93,3.25c-4.56,5.6-9.24,12.09-12.06,19.71c-8.5-6.81-17.93-17.25-24.44-27.86
					C30.33,74.57,45.32,76.72,55.82,79.76z"/>
			</g>
			<g>
				<path class="st3" d="M92.47,57.06c-13.94,4.79-19.56,8.85-26.02,13.25c-6.18-17.87-5.42-34.99-5.42-34.99
					S78.36,43.45,92.47,57.06z"/>
			</g>
			<g>
				<path class="st3" d="M136.98,53.57c-7.29-0.79-11.99-1.06-15.21-1.11c-5.21-0.09-6.88,0.46-10.16,0.51
					c-2.76,0.32-4.63,0.69-4.63,0.69c2.71-11.03,8.65-23.45,14.79-32.36c0.1-0.14,0.15-0.23,0.25-0.37
					C128.33,30.21,133.95,41.84,136.98,53.57z"/>
			</g>
			<g>
				<path class="st3" d="M177.4,70.42c-3.65-3.37-16.72-10.62-25.89-13.3c7.34-7.16,19.12-15.7,31.41-21.65
					C183.28,47.99,180.73,61.46,177.4,70.42z"/>
			</g>
			<g>
				<path class="st3" d="M227.56,75.04c0,0-9.18,15.33-24.54,27.88c-2.39-5.49-1.88-4.66-6.3-12.14c-4.79-6.32-0.68-1.75-8.65-10.94
					C208.23,74.34,227.56,75.04,227.56,75.04z"/>
			</g>
			<g>
				<path class="st3" d="M208.17,129.06c0.22-3.37-0.46-6.65-0.51-9.19c-0.42-2.45-0.79-4.11-0.79-4.11
					c13.03,2.54,27.4,8.12,36.88,13.34c-10.42,5.59-23.54,10.58-36.82,13.25C208.29,132.65,207.97,136.3,208.17,129.06z"/>
			</g>
		</g>
		<path class="st6" d="M136.98,53.57c-7.29-0.79-11.99-1.06-15.21-1.11V21.3c0.1-0.14,0.15-0.23,0.25-0.37
			C128.33,30.21,133.95,41.84,136.98,53.57z"/>
		<path class="st6" d="M132.13,205c2.81-0.32,4.64-0.69,4.64-0.69c-2.82,11.5-9.07,24.19-15,32.6v-31.44
			C127.13,205.6,128.8,205.05,132.13,205z"/>
		<path class="st6" d="M121.87,198.21c-0.06,0-0.06,0-0.1,0V59.71c0.05,0,0.05,0,0.1,0c43.18,0,78.13,31.02,78.13,69.25
			C200,167.23,165.05,198.21,121.87,198.21z"/>
		<path class="st6" d="M177.34,187.64c6.16,17.87,5.42,35,5.42,35s-17.29-8.08-31.46-21.75c6.15-2.12,5.27-1.67,13.65-5.59
			C172.14,191.1,166.98,194.7,177.34,187.64z"/>
		<path class="st6" d="M177.4,70.42c-3.65-3.37-16.72-10.62-25.89-13.3c7.34-7.16,19.12-15.7,31.41-21.65
			C183.28,47.99,180.73,61.46,177.4,70.42z"/>
		<path class="st6" d="M227.35,183.07c-13.91,0.32-29.07-1.89-39.38-4.9c3.86-3.28,11.98-14.86,14.95-22.94
			C211.04,161.74,220.68,172.17,227.35,183.07z"/>
		<path class="st6" d="M196.72,90.78c-4.79-6.32-0.68-1.75-8.65-10.94c20.16-5.49,39.49-4.8,39.49-4.8s-9.18,15.33-24.54,27.88
			C200.63,97.43,201.14,98.26,196.72,90.78z"/>
		<path class="st6" d="M208.17,129.06c0.22-3.37-0.46-6.65-0.51-9.19c-0.42-2.45-0.79-4.11-0.79-4.11
			c13.03,2.54,27.4,8.12,36.88,13.34c-10.42,5.59-23.54,10.58-36.82,13.25C208.29,132.65,207.97,136.3,208.17,129.06z"/>
		<path class="st7" d="M191.42,128.96h-8.87c0-29.66-27.22-53.78-60.67-53.78l-0.09-7.86h0.09
			C160.22,67.32,191.42,94.97,191.42,128.96z"/>
	</g>
	<path class="st8" d="M450,226.27c0,16.67-7.61,31.8-19.97,42.71c-12.37,10.9-29.37,17.69-48.19,17.69H96.76
		c-32.69,0-59.22-23.52-59.22-52.49c0-28.97,26.54-52.44,59.22-52.44c10.5,0,20.32,2.41,28.89,6.68c-1.39-3.42-2.24-7.11-2.24-10.96
		c0-17.69,16.17-31.96,36.13-31.96c11.76,0,22.26,5.02,28.83,12.83c3.13-40.04,39.14-72.05,84.31-74.73
		c2.06-0.16,4.1-0.21,6.21-0.21c50.18,0,90.89,36.08,90.89,80.56c0,1.02-0.12,1.98-0.18,2.99c3.97-0.64,8.07-1.02,12.24-1.02
		C419.48,165.91,450,192.96,450,226.27z"/>
	<path class="st9" d="M450,226.27c0,16.67-7.61,31.8-19.97,42.71c-12.37,10.9-29.37,17.69-48.19,17.69H272.68V83.59
		c2.06-0.16,4.1-0.21,6.21-0.21c50.18,0,90.89,36.08,90.89,80.56c0,1.02-0.12,1.98-0.18,2.99c3.97-0.64,8.07-1.02,12.24-1.02
		C419.48,165.91,450,192.96,450,226.27z"/>
	<path class="st5" d="M347.74,164.14h-8.87c0-29.42-27.01-53.36-60.2-53.36c-1.89,0-3.75,0.08-5.59,0.23l-0.81-7.83
		c2.11-0.17,4.24-0.26,6.4-0.26C316.76,102.92,347.74,130.38,347.74,164.14z"/>
	<g class="st2">
		<path class="st10" d="M358.42,325.53c0,20.96-19.22,37.94-42.87,37.94c-23.71,0-42.87-16.98-42.87-37.94
			c0-21.01,42.87-74.73,42.87-74.73S358.42,304.52,358.42,325.53z"/>
		<path class="st11" d="M358.42,325.53c0,20.96-19.22,37.94-42.87,37.94V250.8C315.55,250.8,358.42,304.52,358.42,325.53z"/>
		<path class="st7" d="M315.55,352.99v-5.24c13.86,0,25.13-9.97,25.13-22.22h5.91C346.59,340.67,332.67,352.99,315.55,352.99z"/>
	</g>
	<path class="st12" d="M246.51,287.87c0,10.36-9.5,18.75-21.19,18.75c-11.72,0-21.18-8.39-21.18-18.75
		c0-10.39,21.18-36.94,21.18-36.94S246.51,277.49,246.51,287.87z"/>
	<path class="st13" d="M246.51,287.87c0,10.36-9.5,18.75-21.19,18.75v-55.69C225.31,250.94,246.51,277.49,246.51,287.87z"/>
</g>
<g class="st0">
	<path class="st14" d="M384.33,276.84c-26.77,61.39-84.46,103.83-151.44,103.83c-51.26,0-97.13-24.9-127.73-64.13
		c-24.69-31.43-39.5-72.13-39.5-116.54c0-99.77,74.85-180.67,167.23-180.67c9.29,0,18.32,0.85,27.15,2.38
		c-58.15,17.05-101.02,74.31-101.02,142.5c0,27.01,6.76,52.34,18.51,74.16c23.65,43.99,67.77,73.6,118.31,73.6
		C329.63,311.99,360.49,298.72,384.33,276.84z"/>
	<path class="st15" d="M159.03,164.22c0,27.01,6.76,52.34,18.51,74.16l-72.37,78.16c-24.69-31.43-39.5-72.13-39.5-116.54
		c0-99.77,74.85-180.67,167.23-180.67c9.29,0,18.32,0.85,27.15,2.38C201.9,38.77,159.03,96.03,159.03,164.22z"/>
	<path class="st5" d="M232.9,359.62c-81.46,0-147.74-71.6-147.74-159.62h12.99c0,80.27,60.44,145.59,134.74,145.59V359.62z"/>
	<polygon class="st15" points="287.82,168.7 343.6,178.62 287.82,188.54 278.63,248.78 269.45,188.54 213.67,178.63 269.45,168.7 
		278.63,108.46 	"/>
	<polygon class="st15" points="352.89,91.26 380.78,96.22 352.89,101.18 348.3,131.3 343.7,101.18 315.81,96.22 343.7,91.26 
		348.3,61.14 	"/>
</g>
<g class="st0">
	<g class="st2">
		<path class="st16" d="M191.29,214.9c-40.37,22.64-92.85,23.33-134.87-2.26C24.27,193.07,5.03,162.21,0.9,129.53
			c-3.43-26.26,2.9-53.7,19.95-77.48C59.14-1.36,137.15-16.08,195.11,19.2c5.83,3.55,11.17,7.45,16.12,11.65
			c-43.03-13.08-91.89,1.19-118.07,37.69c-10.37,14.46-15.85,30.6-16.84,46.78c-2.05,32.58,14.26,65.29,45.97,84.59
			C143.47,212.82,167.93,217.51,191.29,214.9z"/>
		<path class="st17" d="M93.15,68.55c-10.37,14.46-15.85,30.6-16.84,46.78L0.9,129.53c-3.43-26.26,2.9-53.7,19.95-77.48
			C59.14-1.36,137.15-16.08,195.11,19.2c5.83,3.55,11.17,7.45,16.12,11.65C168.2,17.77,119.33,32.04,93.15,68.55z"/>
		<path class="st7" d="M64.5,201.37c-24.72-15.05-41.61-38.11-47.55-64.94s-0.21-54.15,16.13-76.94l8.15,4.96
			c-14.9,20.78-20.13,45.71-14.71,70.18s20.82,45.51,43.37,59.23L64.5,201.37z"/>
	</g>
	<path class="st8" d="M430.97,225.93c0,18.02-7.91,34.37-20.76,46.16c-12.86,11.78-30.53,19.12-50.1,19.12H63.75
		c-33.98,0-61.57-25.42-61.57-56.73c0-31.31,27.59-56.68,61.57-56.68c10.91,0,21.13,2.6,30.04,7.22c-1.44-3.7-2.33-7.68-2.33-11.85
		c0-19.12,16.81-34.55,37.56-34.55c12.23,0,23.14,5.43,29.97,13.86c3.26-43.27,40.69-77.88,87.65-80.77
		c2.14-0.17,4.26-0.23,6.46-0.23c52.16,0,94.48,39,94.48,87.07c0,1.1-0.13,2.13-0.19,3.24c4.13-0.69,8.39-1.1,12.73-1.1
		C399.24,160.7,430.97,189.94,430.97,225.93z"/>
	<path class="st9" d="M430.97,225.93c0,18.02-7.91,34.37-20.76,46.16c-12.86,11.78-30.53,19.12-50.1,19.12H246.63V71.73
		c2.14-0.17,4.26-0.23,6.46-0.23c52.16,0,94.48,39,94.48,87.07c0,1.1-0.13,2.13-0.19,3.24c4.13-0.69,8.39-1.1,12.73-1.1
		C399.24,160.7,430.97,189.94,430.97,225.93z"/>
	<path class="st5" d="M324.66,158.78h-9.22c0-31.8-28.07-57.67-62.58-57.67c-1.96,0-3.9,0.09-5.81,0.25l-0.84-8.46
		c2.19-0.19,4.41-0.28,6.65-0.28C292.45,92.62,324.66,122.3,324.66,158.78z"/>
	<g class="st2">
		<path class="st10" d="M335.76,333.22c0,22.66-19.98,41.01-44.56,41.01c-24.65,0-44.56-18.35-44.56-41.01
			c0-22.71,44.56-80.77,44.56-80.77S335.76,310.51,335.76,333.22z"/>
		<path class="st11" d="M335.76,333.22c0,22.66-19.98,41.01-44.56,41.01V252.45C291.2,252.45,335.76,310.51,335.76,333.22z"/>
		<path class="st7" d="M291.2,362.9v-5.66c14.41,0,26.12-10.78,26.12-24.02h6.15C323.47,349.59,308.99,362.9,291.2,362.9z"/>
	</g>
	<path class="st12" d="M219.42,292.52c0,11.2-9.87,20.27-22.03,20.27c-12.18,0-22.02-9.07-22.02-20.27
		c0-11.23,22.02-39.92,22.02-39.92S219.42,281.29,219.42,292.52z"/>
	<path class="st13" d="M219.42,292.52c0,11.2-9.87,20.27-22.03,20.27V252.6C197.39,252.6,219.42,281.29,219.42,292.52z"/>
	<polygon class="st15" points="410.43,87.64 450,93.64 410.43,99.65 403.91,136.13 397.39,99.65 357.81,93.65 397.39,87.64 
		403.91,51.17 	"/>
	<polygon class="st15" points="340.11,40.08 366.49,44.08 340.11,48.08 335.76,72.4 331.42,48.08 305.03,44.08 331.42,40.08 
		335.76,15.76 	"/>
</g>
<g class="st0">
	<path class="st18" d="M350.11,66.61H175.25c-4.9,0-8.88-6.27-8.88-14.01s3.97-14.01,8.88-14.01h174.85c4.9,0,8.88,6.27,8.88,14.01
		S355.01,66.61,350.11,66.61z"/>
	<path class="st19" d="M347,66.3c0,3.02-0.07,6-0.21,8.86c-5.01,112.33-105.95,109.26-130.87,158.92
		c-4.33,8.57-6.36,18.83-5.18,31.51c3.12,33.63,28.86,44.17,16.44,101.63c0-26.12-26.42-41.7-53.97-65.7
		c-29.86-26-60.96-61.88-60.96-131.9c0-59.14,32.34-86.89,49.99-97.65c6.61-4.04,11.15-5.66,11.15-5.66H347z"/>
	<g class="st2">
		<path class="st20" d="M307.06,107h-142.9c-0.98,0-1.78-1.25-1.78-2.8c0-1.55,0.79-2.8,1.78-2.8h142.9c0.98,0,1.78,1.25,1.78,2.8
			C308.83,105.75,308.04,107,307.06,107z"/>
		<path class="st20" d="M199.88,126.17h-64.35c-0.98,0-1.78-1.25-1.78-2.8s0.79-2.8,1.78-2.8h64.35c0.98,0,1.78,1.25,1.78,2.8
			S200.86,126.17,199.88,126.17z"/>
		<path class="st20" d="M239.6,169.27h-75.44c-0.98,0-1.78-1.25-1.78-2.8s0.79-2.8,1.78-2.8h75.44c0.98,0,1.78,1.25,1.78,2.8
			S240.58,169.27,239.6,169.27z"/>
		<path class="st20" d="M206.32,219.56h-70.79c-0.98,0-1.78-1.25-1.78-2.8c0-1.55,0.79-2.8,1.78-2.8h70.79
			c0.98,0,1.78,1.25,1.78,2.8C208.09,218.31,207.3,219.56,206.32,219.56z"/>
		<path class="st20" d="M192.45,241.44H156.5c-0.98,0-1.78-1.25-1.78-2.8s0.79-2.8,1.78-2.8h35.95c0.98,0,1.78,1.25,1.78,2.8
			S193.43,241.44,192.45,241.44z"/>
	</g>
	<path class="st21" d="M347,66.3c0,3.02-0.07,6-0.21,8.86c-1.03,0.67-2.17,1.01-3.34,1.01H168.6c-2.49,0-4.72-1.63-6.36-4.2
		c6.61-4.04,11.15-5.66,11.15-5.66H347z"/>
	<path class="st22" d="M359,52.57c0,7.79-3.98,14.01-8.88,14.01H175.23c-4.9,0-8.88-6.22-8.88-14.01c0-7.74,3.98-14.01,8.88-14.01
		h174.89C355.02,38.55,359,44.83,359,52.57z"/>
	<path class="st23" d="M359,52.57c0,7.79-3.98,14.01-8.88,14.01h-87.44V38.55h87.44C355.02,38.55,359,44.83,359,52.57z"/>
	<path class="st5" d="M329.45,86.93c-7.12,45.36-39.22,64.19-70.33,82.35l-3.33,1.94l2.46,10.52l3.33-1.95
		c33.42-19.5,67.98-39.67,75.2-92.69l0.02-0.16H329.45z"/>
</g>
<g class="st0">
	<g class="st2">
		<path class="st24" d="M205.3,288.96c-4.56,0-8.25-3.45-8.25-7.71V111.56c0-4.26,3.69-7.71,8.25-7.71c4.56,0,8.25,3.45,8.25,7.71
			v169.69C213.55,285.5,209.86,288.96,205.3,288.96z"/>
		<g>
			<path class="st24" d="M205.3,170.97c-2.11,0-4.22-0.75-5.83-2.26l-32.59-30.47c-3.22-3.01-3.22-7.89,0-10.91
				c3.22-3.01,8.44-3.01,11.67,0l32.59,30.47c3.22,3.01,3.22,7.89,0,10.91C209.53,170.22,207.42,170.97,205.3,170.97z"/>
			<path class="st24" d="M205.3,170.97c-2.11,0-4.22-0.75-5.83-2.26c-3.22-3.01-3.22-7.89,0-10.91l32.59-30.47
				c3.22-3.01,8.44-3.01,11.67,0c3.22,3.01,3.22,7.89,0,10.91l-32.59,30.47C209.53,170.22,207.42,170.97,205.3,170.97z"/>
		</g>
		<g>
			<path class="st24" d="M172.72,267.46c-2.11,0-4.22-0.75-5.83-2.26c-3.22-3.01-3.22-7.89,0-10.91l32.59-30.47
				c3.22-3.01,8.44-3.01,11.67,0c3.22,3.01,3.22,7.89,0,10.91l-32.59,30.47C176.94,266.71,174.83,267.46,172.72,267.46z"/>
			<path class="st24" d="M237.89,267.46c-2.11,0-4.22-0.75-5.83-2.26l-32.59-30.47c-3.22-3.01-3.22-7.89,0-10.91
				c3.22-3.01,8.44-3.01,11.67,0l32.59,30.47c3.22,3.01,3.22,7.89,0,10.91C242.11,266.71,240,267.46,237.89,267.46z"/>
		</g>
	</g>
	<path class="st23" d="M296.05,204.11H114.56c-4.56,0-8.25-3.45-8.25-7.71c0-4.26,3.69-7.71,8.25-7.71h181.49
		c4.56,0,8.25,3.45,8.25,7.71C304.3,200.66,300.61,204.11,296.05,204.11z"/>
	<g class="st2">
		<path class="st24" d="M240.75,204.11c-2.11,0-4.22-0.75-5.83-2.26c-3.22-3.01-3.22-7.89,0-10.91l32.59-30.47
			c3.22-3.01,8.44-3.01,11.67,0c3.22,3.01,3.22,7.89,0,10.91l-32.59,30.47C244.97,203.36,242.86,204.11,240.75,204.11z"/>
		<path class="st24" d="M273.34,234.58c-2.11,0-4.22-0.75-5.83-2.26l-32.59-30.47c-3.22-3.01-3.22-7.89,0-10.91
			c3.22-3.01,8.44-3.01,11.67,0l32.59,30.47c3.22,3.01,3.22,7.89,0,10.91C277.56,233.83,275.45,234.58,273.34,234.58z"/>
	</g>
	<g class="st2">
		<path class="st24" d="M170.13,204.11c-2.11,0-4.22-0.75-5.83-2.26l-32.59-30.47c-3.22-3.01-3.22-7.89,0-10.91
			c3.22-3.01,8.44-3.01,11.67,0l32.59,30.47c3.22,3.01,3.22,7.89,0,10.91C174.36,203.36,172.24,204.11,170.13,204.11z"/>
		<path class="st24" d="M137.55,234.58c-2.11,0-4.22-0.75-5.83-2.26c-3.22-3.01-3.22-7.89,0-10.91l32.59-30.47
			c3.22-3.01,8.44-3.01,11.67,0c3.22,3.01,3.22,7.89,0,10.91l-32.59,30.47C141.77,233.83,139.66,234.58,137.55,234.58z"/>
	</g>
	<g class="st2">
		<ellipse class="st7" cx="205.3" cy="196.4" rx="18.15" ry="16.97"/>
		<path class="st24" d="M205.3,221.08c-14.56,0-26.4-11.07-26.4-24.68c0-13.61,11.84-24.68,26.4-24.68s26.4,11.07,26.4,24.68
			C231.7,210.01,219.86,221.08,205.3,221.08z M205.3,187.14c-5.46,0-9.9,4.15-9.9,9.26c0,5.1,4.44,9.26,9.9,9.26
			c5.46,0,9.9-4.15,9.9-9.26C215.2,191.3,210.76,187.14,205.3,187.14z"/>
	</g>
	<path class="st25" d="M296.05,188.69h-35.38l18.5-17.3c3.22-3.01,3.22-7.89,0-10.91c-3.22-3.01-8.44-3.01-11.67,0l-30.17,28.21
		h-6.97c-2.62-7.41-8.88-13.27-16.81-15.72v-6.52l30.17-28.21c3.22-3.01,3.22-7.89,0-10.91c-3.22-3.01-8.44-3.01-11.67,0l-18.5,17.3
		v-33.08c0-4.26-3.69-7.71-8.25-7.71v83.25c5.49,0,9.95,4.17,9.95,9.3c0,5.14-4.46,9.3-9.95,9.3v83.25c4.56,0,8.25-3.45,8.25-7.71
		V247.9l18.5,17.3c1.61,1.51,3.72,2.26,5.83,2.26c2.11,0,4.22-0.75,5.83-2.26c3.22-3.01,3.22-7.89,0-10.91l-30.17-28.21v-6.26
		c7.93-2.44,14.2-8.3,16.81-15.72h6.97l30.17,28.21c1.61,1.51,3.72,2.26,5.83,2.26c2.11,0,4.22-0.75,5.83-2.26
		c3.22-3.01,3.22-7.89,0-10.91l-18.5-17.3h35.38c4.56,0,8.25-3.45,8.25-7.71C304.3,192.14,300.61,188.69,296.05,188.69z"/>
	<g class="st2">
		<path class="st24" d="M298.94,147.42c-2.73,0-4.95-2.07-4.95-4.63V74.92c0-2.56,2.22-4.63,4.95-4.63s4.95,2.07,4.95,4.63v67.88
			C303.89,145.35,301.67,147.42,298.94,147.42z"/>
		<path class="st24" d="M335.24,113.49h-72.6c-2.73,0-4.95-2.07-4.95-4.63c0-2.55,2.22-4.63,4.95-4.63h72.6
			c2.73,0,4.95,2.07,4.95,4.63C340.19,111.41,337.97,113.49,335.24,113.49z"/>
		<path class="st24" d="M324.61,137.48c-1.27,0-2.53-0.45-3.5-1.36l-51.34-48c-1.93-1.81-1.93-4.74,0-6.54c1.93-1.81,5.07-1.81,7,0
			l51.34,48c1.93,1.81,1.93,4.74,0,6.54C327.14,137.03,325.87,137.48,324.61,137.48z"/>
		<path class="st24" d="M273.27,137.48c-1.27,0-2.53-0.45-3.5-1.36c-1.93-1.81-1.93-4.74,0-6.54l51.34-48c1.93-1.81,5.07-1.81,7,0
			c1.93,1.81,1.93,4.74,0,6.54l-51.34,48C275.8,137.03,274.54,137.48,273.27,137.48z"/>
		<path class="st26" d="M303.89,142.8v-22.77l17.22,16.1c0.97,0.9,2.23,1.36,3.5,1.36c1.27,0,2.53-0.45,3.5-1.36
			c1.93-1.8,1.93-4.74,0-6.54l-17.22-16.1h24.35c2.73,0,4.95-2.07,4.95-4.63c0-2.55-2.22-4.63-4.95-4.63h-24.35l17.22-16.1
			c1.93-1.8,1.93-4.74,0-6.54c-1.93-1.81-5.07-1.81-7,0l-17.22,16.1V74.92c0-2.56-2.22-4.63-4.95-4.63v77.13
			C301.67,147.42,303.89,145.35,303.89,142.8z"/>
	</g>
</g>
<g class="st0">
	<path class="st8" d="M450,217.14c0,19.19-8.3,36.61-21.78,49.17c-13.49,12.55-32.04,20.36-52.58,20.36H64.61
		C28.95,286.67,0,259.6,0,226.25c0-33.35,28.95-60.36,64.61-60.36c11.45,0,22.17,2.77,31.52,7.69c-1.51-3.94-2.44-8.18-2.44-12.61
		c0-20.37,17.64-36.79,39.41-36.79c12.83,0,24.28,5.79,31.46,14.76c3.42-46.09,42.7-82.94,91.99-86.02
		c2.24-0.18,4.47-0.25,6.78-0.25c54.75,0,99.16,41.54,99.16,92.73c0,1.17-0.14,2.27-0.2,3.45c4.34-0.74,8.81-1.17,13.35-1.17
		C416.7,147.67,450,178.8,450,217.14z"/>
	<path class="st9" d="M450,217.14c0,19.19-8.3,36.61-21.78,49.17c-13.49,12.55-32.04,20.36-52.58,20.36H256.55V52.91
		c2.24-0.18,4.47-0.25,6.78-0.25c54.75,0,99.16,41.54,99.16,92.73c0,1.17-0.14,2.27-0.2,3.45c4.34-0.74,8.81-1.17,13.35-1.17
		C416.7,147.67,450,178.8,450,217.14z"/>
	<path class="st5" d="M338.44,145.63h-9.68c0-33.86-29.46-61.41-65.68-61.41c-2.06,0-4.09,0.09-6.1,0.26l-0.88-9.01
		c2.3-0.19,4.62-0.3,6.98-0.3C304.64,75.16,338.44,106.77,338.44,145.63z"/>
</g>
<g class="st0">
	<path class="st8" d="M450,203.29c0,19.29-8.3,36.79-21.78,49.41c-13.49,12.61-32.05,20.46-52.57,20.46H64.62
		C28.95,273.15,0,245.96,0,212.44s28.95-60.66,64.62-60.66c11.45,0,22.17,2.78,31.52,7.73c-1.51-3.97-2.44-8.23-2.44-12.68
		c0-20.47,17.64-36.98,39.41-36.98c12.84,0,24.29,5.81,31.46,14.84c3.41-46.32,42.7-83.34,91.98-86.44
		c2.24-0.18,4.47-0.25,6.78-0.25c54.74,0,99.15,41.75,99.15,93.19c0,1.17-0.13,2.28-0.19,3.46c4.33-0.75,8.81-1.17,13.35-1.17
		C416.7,133.48,450,164.76,450,203.29z"/>
	<path class="st9" d="M450,203.29c0,19.29-8.3,36.79-21.78,49.41c-13.49,12.61-32.05,20.46-52.57,20.46H256.55V38.25
		c2.24-0.18,4.47-0.25,6.78-0.25c54.74,0,99.15,41.75,99.15,93.19c0,1.17-0.13,2.28-0.19,3.46c4.33-0.75,8.81-1.17,13.35-1.17
		C416.7,133.48,450,164.76,450,203.29z"/>
	<path class="st5" d="M338.44,131.42h-9.68c0-34.03-29.46-61.71-65.68-61.71c-2.05,0-4.08,0.09-6.08,0.27l-0.91-9.06
		c2.31-0.2,4.64-0.3,6.99-0.3C304.64,60.61,338.44,92.38,338.44,131.42z"/>
	<g class="st2">
		<path class="st10" d="M350.08,318.11c0,24.25-20.96,43.89-46.77,43.89c-25.87,0-46.77-19.64-46.77-43.89
			c0-24.31,46.77-86.44,46.77-86.44S350.08,293.8,350.08,318.11z"/>
		<path class="st11" d="M350.08,318.11c0,24.25-20.96,43.89-46.77,43.89V231.67C303.31,231.67,350.08,293.8,350.08,318.11z"/>
		<path class="st7" d="M303.31,349.88v-6.06c15.12,0,27.41-11.53,27.41-25.7h6.45C337.18,335.63,321.98,349.88,303.31,349.88z"/>
	</g>
	<path class="st12" d="M227.99,274.55c0,11.99-10.36,21.7-23.12,21.7c-12.79,0-23.11-9.71-23.11-21.7
		c0-12.01,23.11-42.72,23.11-42.72S227.99,262.54,227.99,274.55z"/>
	<path class="st13" d="M227.99,274.55c0,11.99-10.36,21.7-23.12,21.7v-64.42C204.87,231.83,227.99,262.54,227.99,274.55z"/>
</g>
<g>
	<g>
		<path class="st27" d="M450,194.32c0,18.01-8.3,34.34-21.78,46.12c-13.49,11.77-32.05,19.11-52.57,19.11H64.62
			C28.95,259.55,0,234.15,0,202.86c0-31.29,28.95-56.63,64.62-56.63c11.45,0,22.17,2.6,31.52,7.22c-1.51-3.7-2.44-7.68-2.44-11.84
			c0-19.11,17.64-34.52,39.41-34.52c12.84,0,24.29,5.43,31.46,13.85c3.41-43.24,42.7-77.81,91.98-80.71
			c2.24-0.17,4.47-0.23,6.78-0.23c54.74,0,99.15,38.97,99.15,87c0,1.09-0.13,2.13-0.19,3.23c4.33-0.69,8.81-1.09,13.35-1.09
			C416.7,129.14,450,158.35,450,194.32z"/>
		<path class="st28" d="M450,194.32c0,18.01-8.3,34.34-21.78,46.12c-13.49,11.77-32.05,19.11-52.57,19.11h-119.1V40.23
			c2.24-0.17,4.47-0.23,6.78-0.23c54.74,0,99.15,38.97,99.15,87c0,1.09-0.13,2.13-0.19,3.23c4.33-0.69,8.81-1.09,13.35-1.09
			C416.7,129.14,450,158.35,450,194.32z"/>
		<path class="st7" d="M338.44,127.22h-9.68c0-31.77-29.46-57.62-65.68-57.62c-2.05,0-4.08,0.08-6.09,0.25l-0.91-8.45
			c2.31-0.19,4.64-0.28,6.99-0.28C304.64,61.11,338.44,90.76,338.44,127.22z"/>
	</g>
	<g>
		<g>
			<path class="st24" d="M340.44,347.59c-2.78,0-5.03-1.98-5.03-4.41v-64.73c0-2.44,2.26-4.41,5.03-4.41c2.78,0,5.03,1.98,5.03,4.41
				v64.73C345.48,345.61,343.22,347.59,340.44,347.59z"/>
			<path class="st24" d="M377.33,315.22h-73.79c-2.78,0-5.03-1.98-5.03-4.41c0-2.44,2.26-4.41,5.03-4.41h73.79
				c2.78,0,5.03,1.98,5.03,4.41C382.36,313.25,380.11,315.22,377.33,315.22z"/>
			<path class="st24" d="M366.53,338.12c-1.28,0-2.58-0.43-3.56-1.29l-52.18-45.79c-1.97-1.72-1.97-4.52,0-6.25
				c1.97-1.72,5.15-1.72,7.12,0l52.18,45.79c1.97,1.72,1.97,4.52,0,6.25C369.11,337.69,367.82,338.12,366.53,338.12z"/>
			<path class="st24" d="M314.35,338.12c-1.29,0-2.58-0.43-3.56-1.29c-1.97-1.72-1.97-4.52,0-6.25l52.18-45.79
				c1.96-1.72,5.15-1.72,7.12,0c1.97,1.72,1.97,4.52,0,6.25l-52.18,45.79C316.93,337.69,315.63,338.12,314.35,338.12z"/>
		</g>
		<g>
			<path class="st24" d="M224.86,347.59c-2.78,0-5.03-1.98-5.03-4.41v-64.73c0-2.44,2.26-4.41,5.03-4.41c2.78,0,5.03,1.98,5.03,4.41
				v64.73C229.89,345.61,227.64,347.59,224.86,347.59z"/>
			<path class="st24" d="M261.75,315.22h-73.79c-2.78,0-5.03-1.98-5.03-4.41c0-2.44,2.26-4.41,5.03-4.41h73.79
				c2.78,0,5.03,1.98,5.03,4.41C266.78,313.25,264.53,315.22,261.75,315.22z"/>
			<path class="st24" d="M250.95,338.12c-1.28,0-2.58-0.43-3.56-1.29l-52.18-45.79c-1.96-1.72-1.96-4.52,0-6.25
				c1.97-1.72,5.15-1.72,7.12,0l52.18,45.79c1.97,1.72,1.97,4.52,0,6.25C253.53,337.69,252.24,338.12,250.95,338.12z"/>
			<path class="st24" d="M198.77,338.12c-1.28,0-2.58-0.43-3.56-1.29c-1.96-1.72-1.96-4.52,0-6.25l52.18-45.79
				c1.97-1.72,5.15-1.72,7.12,0c1.97,1.72,1.97,4.52,0,6.25l-52.18,45.79C201.35,337.69,200.05,338.12,198.77,338.12z"/>
		</g>
		<g>
			<path class="st24" d="M109.28,347.59c-2.78,0-5.03-1.98-5.03-4.41v-64.73c0-2.44,2.26-4.41,5.03-4.41c2.78,0,5.03,1.98,5.03,4.41
				v64.73C114.31,345.61,112.06,347.59,109.28,347.59z"/>
			<path class="st24" d="M146.17,315.22H72.38c-2.78,0-5.03-1.98-5.03-4.41c0-2.44,2.26-4.41,5.03-4.41h73.79
				c2.78,0,5.03,1.98,5.03,4.41C151.2,313.25,148.95,315.22,146.17,315.22z"/>
			<path class="st24" d="M135.37,338.12c-1.28,0-2.58-0.43-3.56-1.29l-52.18-45.79c-1.97-1.72-1.97-4.52,0-6.25
				c1.97-1.72,5.15-1.72,7.12,0l52.18,45.79c1.97,1.72,1.97,4.52,0,6.25C137.95,337.69,136.66,338.12,135.37,338.12z"/>
			<path class="st24" d="M83.19,338.12c-1.28,0-2.58-0.43-3.56-1.29c-1.97-1.72-1.97-4.52,0-6.25l52.18-45.79
				c1.97-1.72,5.15-1.72,7.12,0c1.97,1.72,1.97,4.52,0,6.25l-52.18,45.79C85.77,337.69,84.47,338.12,83.19,338.12z"/>
		</g>
	</g>
</g>
<g class="st0">
	<g class="st2">
		<path class="st27" d="M450,180.24c0,17.61-8.3,33.58-21.78,45.1c-13.49,11.51-32.05,18.68-52.57,18.68H64.62
			C28.95,244.03,0,219.19,0,188.59c0-30.6,28.95-55.38,64.62-55.38c11.45,0,22.17,2.54,31.52,7.06c-1.51-3.62-2.44-7.51-2.44-11.58
			c0-18.68,17.64-33.76,39.41-33.76c12.84,0,24.29,5.31,31.46,13.54c3.41-42.28,42.7-76.09,91.98-78.92
			c2.24-0.16,4.47-0.22,6.78-0.22c54.74,0,99.15,38.11,99.15,85.08c0,1.07-0.13,2.09-0.19,3.16c4.33-0.68,8.81-1.07,13.35-1.07
			C416.7,116.5,450,145.06,450,180.24z"/>
		<path class="st28" d="M450,180.24c0,17.61-8.3,33.58-21.78,45.1c-13.49,11.51-32.05,18.68-52.57,18.68H256.55V29.56
			c2.24-0.16,4.47-0.22,6.78-0.22c54.74,0,99.15,38.11,99.15,85.08c0,1.07-0.13,2.09-0.19,3.16c4.33-0.68,8.81-1.07,13.35-1.07
			C416.7,116.5,450,145.06,450,180.24z"/>
		<path class="st7" d="M338.44,114.62h-9.68c0-31.07-29.46-56.35-65.68-56.35c-2.05,0-4.08,0.08-6.08,0.24l-0.91-8.27
			c2.31-0.18,4.64-0.28,6.99-0.28C304.64,49.97,338.44,78.98,338.44,114.62z"/>
	</g>
	<path class="st4" d="M209.69,266.39l37.85-95.47l-87.35,117.61c29.86,0,34.51,0,64.18,0L186.52,384
		c83.59-112.6,68.25-91.96,87.35-117.61C243.6,266.39,240.01,266.39,209.69,266.39z"/>
	<path class="st4" d="M327.2,217.88l21.25-53.61l-49.05,66.04c16.76,0,19.38,0,36.04,0l-21.25,53.6
		c46.93-63.22,38.32-51.63,49.05-66.03C346.24,217.88,344.23,217.88,327.2,217.88z"/>
	<polygon class="st29" points="247.54,170.92 187.07,277.46 247.54,277.46 186.52,384 273.87,266.39 209.69,266.39 	"/>
</g>
<g class="st0">
	<g class="st2">
		<path class="st27" d="M450,173.13c0,17.91-8.3,34.15-21.78,45.87c-13.49,11.71-32.05,19-52.57,19H64.62
			C28.95,237.99,0,212.74,0,181.62c0-31.11,28.95-56.32,64.62-56.32c11.45,0,22.17,2.58,31.52,7.18c-1.51-3.68-2.44-7.64-2.44-11.77
			c0-19,17.64-34.33,39.41-34.33c12.84,0,24.29,5.4,31.46,13.77c3.41-43,42.7-77.38,91.98-80.26c2.24-0.16,4.47-0.23,6.78-0.23
			c54.74,0,99.15,38.75,99.15,86.52c0,1.09-0.13,2.12-0.19,3.21c4.33-0.69,8.81-1.09,13.35-1.09C416.7,108.31,450,137.35,450,173.13
			z"/>
		<path class="st28" d="M450,173.13c0,17.91-8.3,34.15-21.78,45.87c-13.49,11.71-32.05,19-52.57,19h-119.1V19.89
			c2.24-0.16,4.47-0.23,6.78-0.23c54.74,0,99.15,38.75,99.15,86.52c0,1.09-0.13,2.12-0.19,3.21c4.33-0.69,8.81-1.09,13.35-1.09
			C416.7,108.31,450,137.35,450,173.13z"/>
		<path class="st7" d="M338.44,106.4h-9.68c0-31.59-29.46-57.3-65.68-57.3c-2.05,0-4.08,0.08-6.09,0.25l-0.9-8.41
			c2.3-0.19,4.63-0.28,6.99-0.28C304.64,40.66,338.44,70.15,338.44,106.4z"/>
	</g>
	<path class="st4" d="M359.45,211.4l21.25-54.51l-49.05,67.15c16.76,0,19.38,0,36.04,0l-21.25,54.51
		c46.93-64.29,38.32-52.51,49.05-67.15C378.5,211.4,376.48,211.4,359.45,211.4z"/>
	<g class="st2">
		<path class="st6" d="M254.84,260.73l37.85-97.09l-87.35,119.6c29.86,0,34.51,0,64.18,0l-37.85,97.09
			c83.59-114.51,68.25-93.52,87.35-119.6C288.76,260.73,285.16,260.73,254.84,260.73z"/>
		<polygon class="st30" points="292.69,163.64 232.23,271.99 292.69,271.99 231.67,380.33 319.02,260.73 254.84,260.73 		"/>
	</g>
	<g class="st2">
		<path class="st10" d="M176.73,298.86c0,11.13-10.36,20.14-23.12,20.14c-12.79,0-23.11-9.01-23.11-20.14
			c0-11.15,23.11-39.67,23.11-39.67S176.73,287.7,176.73,298.86z"/>
		<path class="st11" d="M176.73,298.86c0,11.13-10.36,20.14-23.12,20.14v-59.81C153.62,259.19,176.73,287.7,176.73,298.86z"/>
	</g>
	<g class="st2">
		<path class="st10" d="M97.84,298.86c0,11.13-10.36,20.14-23.12,20.14c-12.79,0-23.11-9.01-23.11-20.14
			c0-11.15,23.11-39.67,23.11-39.67S97.84,287.7,97.84,298.86z"/>
		<path class="st11" d="M97.84,298.86c0,11.13-10.36,20.14-23.12,20.14v-59.81C74.72,259.19,97.84,287.7,97.84,298.86z"/>
	</g>
</g>
<g class="st0">
	<path class="st31" d="M225.06,356.94c-4.99,0-9.03-3.52-9.03-7.87V41.09c0-4.35,4.04-7.87,9.03-7.87s9.03,3.52,9.03,7.87v307.98
		C234.09,353.42,230.05,356.94,225.06,356.94z"/>
	<path class="st31" d="M225.01,352.96c-2.99,0-5.42-2.12-5.42-4.72V41.19c0-2.61,2.43-4.72,5.42-4.72c2.99,0,5.42,2.12,5.42,4.72
		v307.05C230.42,350.85,228,352.96,225.01,352.96z"/>
	<path class="st32" d="M77.18,188.14c10.79,0,20.04,2.25,24.64,5.5c4.6-3.25,13.85-5.5,24.64-5.5c10.79,0,20.04,2.25,24.64,5.5
		c4.58-3.25,13.83-5.5,24.63-5.5c10.79,0,20.05,2.25,24.65,5.5c4.6-3.25,13.85-5.5,24.64-5.5c10.79,0,20.04,2.25,24.64,5.5
		c4.58-3.25,13.83-5.5,24.63-5.5c10.79,0,20.04,2.25,24.64,5.5c4.6-3.25,13.86-5.5,24.65-5.5c10.79,0,20.04,2.25,24.63,5.5
		c4.6-3.25,13.85-5.5,24.64-5.5c10.33,0,19.23,2.06,24.01,5.09C394,117.81,318.18,57.38,225.01,57.38
		c-93.19,0-169.01,60.43-171.84,135.85C57.95,190.2,66.86,188.14,77.18,188.14z"/>
	<path class="st33" d="M209.22,375.67c-12.58,0-25.31-9.02-25.31-26.26c0-4.56,4.24-8.26,9.49-8.26c5.23,0,9.47,3.7,9.47,8.26
		c0,9.66,6.59,11.58,10.02,8.11c1.7-1.72,2.63-4.61,2.63-8.11v-22.03c0-4.56,4.24-8.26,9.49-8.26c5.23,0,9.47,3.7,9.47,8.26v22.03
		c0,7.57-2.49,14.11-7.23,18.89C222.63,372.98,216.06,375.67,209.22,375.67z"/>
	<path class="st34" d="M225.06,57.38v130.76c10.77,0.01,19.99,2.25,24.58,5.5c4.58-3.25,13.83-5.5,24.63-5.5
		c10.79,0,20.04,2.25,24.64,5.5c4.6-3.25,13.86-5.5,24.65-5.5c10.79,0,20.04,2.25,24.63,5.5c4.6-3.25,13.85-5.5,24.64-5.5
		c10.33,0,19.23,2.06,24.01,5.09C394,117.83,318.22,57.4,225.06,57.38z"/>
	<g class="st2">
		<path class="st10" d="M198.48,112.45c0,20.98-19.56,37.98-43.63,37.98c-24.14,0-43.63-17-43.63-37.98
			c0-21.03,43.63-74.8,43.63-74.8S198.48,91.41,198.48,112.45z"/>
		<path class="st11" d="M198.48,112.45c0,20.98-19.56,37.98-43.63,37.98V37.64C154.85,37.64,198.48,91.41,198.48,112.45z"/>
		<path class="st7" d="M154.85,139.94v-5.25c14.1,0,25.58-9.98,25.58-22.24h6.02C186.45,127.61,172.28,139.94,154.85,139.94z"/>
	</g>
	<path class="st12" d="M108.27,61.31c0,10.37-9.67,18.78-21.57,18.78c-11.93,0-21.56-8.4-21.56-18.78
		c0-10.39,21.56-36.97,21.56-36.97S108.27,50.91,108.27,61.31z"/>
	<path class="st13" d="M108.27,61.31c0,10.37-9.67,18.78-21.57,18.78V24.33C86.7,24.33,108.27,50.91,108.27,61.31z"/>
</g>
<g class="st0">
	<path class="st12" d="M395.78,174.06c0,6.29-5.1,11.39-11.39,11.39c-6.29,0-11.39-5.1-11.39-11.39c0-6.29,5.1-11.39,11.39-11.39
		C390.68,162.66,395.78,167.77,395.78,174.06z"/>
	<rect x="378.69" y="125.13" class="st12" width="11.39" height="46.04"/>
	<path class="st12" d="M390.07,125.13c0,3.14-2.54,5.68-5.68,5.68c-3.14,0-5.68-2.54-5.68-5.68c0-3.14,2.54-5.68,5.68-5.68
		C387.52,119.45,390.07,122,390.07,125.13z"/>
	<path class="st12" d="M390.08,164.2v-39.07h-0.02c0-3.14-2.54-5.68-5.68-5.68c-3.14,0-5.68,2.54-5.68,5.68h-0.02v39.07
		c-3.4,1.97-5.7,5.64-5.7,9.86c0,6.29,5.1,11.39,11.39,11.39c6.29,0,11.39-5.1,11.39-11.39
		C395.78,169.84,393.49,166.17,390.08,164.2z"/>
	<path class="st13" d="M395.78,174.06c0,6.3-5.1,11.39-11.39,11.39v-66c3.13,0,5.67,2.54,5.67,5.68h0.02v39.06
		C393.48,166.17,395.78,169.84,395.78,174.06z"/>
	<path class="st13" d="M384.39,182.66c-4.75,0-8.61-3.86-8.61-8.6c0-3.05,1.65-5.91,4.31-7.44l1.39-0.81v-37.89l0.02-2.79
		c0-1.59,1.3-2.89,2.89-2.89c1.59,0,2.89,1.3,2.89,2.89v2.79h0.02v37.89l1.39,0.81c2.66,1.54,4.31,4.39,4.31,7.44
		C392.99,178.8,389.13,182.66,384.39,182.66z"/>
	<path class="st35" d="M392.99,174.06c0-3.05-1.65-5.91-4.31-7.44l-1.39-0.81v-37.89h-0.02v-2.79c0-1.59-1.29-2.89-2.89-2.89v60.42
		C389.13,182.66,392.99,178.8,392.99,174.06z"/>
	<path class="st32" d="M381.48,140.57v25.23l-1.39,0.81c-2.66,1.54-4.31,4.39-4.31,7.44c0,4.74,3.86,8.6,8.61,8.6
		c4.74,0,8.6-3.86,8.6-8.6c0-3.05-1.65-5.91-4.31-7.44l-1.39-0.81v-25.23H381.48z"/>
	<path class="st34" d="M392.99,174.06c0-3.05-1.65-5.91-4.31-7.44l-1.39-0.81v-25.23h-2.9v42.09
		C389.13,182.66,392.99,178.8,392.99,174.06z"/>
	<g class="st2">
		<g>
			<path class="st36" d="M400.17,163.41c-2.81,0-3.92-1.47-3.95-4.22v-10.85h-1.74v-2.62h1.74v-6.1h3.49v6.1h2.62v2.62h-2.62v10.18
				c0,1.24,0.19,2.03,1.44,2.03c0.33,0,0.86-0.08,1.17-0.14v2.83C401.46,163.36,401.02,163.41,400.17,163.41z"/>
		</g>
		<g>
			<path class="st36" d="M405.69,147.79c-1.36,0-2.04-1.01-2.04-2.41v-3.49c0-1.44,0.63-2.41,2.04-2.41c1.4,0,2.04,0.97,2.04,2.41
				v3.49C407.73,146.79,407.07,147.79,405.69,147.79z M405.69,146.83c0.71,0,0.87-0.75,0.87-1.46v-3.49c0-0.74-0.13-1.46-0.87-1.46
				c-0.75,0-0.87,0.71-0.87,1.46v3.49C404.82,146.08,404.99,146.83,405.69,146.83z"/>
		</g>
	</g>
</g>
<g class="st0">
	<g class="st2">
		<path class="st27" d="M450,190.93c0,18.12-8.3,34.56-21.78,46.42c-13.49,11.85-32.05,19.23-52.57,19.23H64.62
			C28.95,256.57,0,231.02,0,199.52c0-31.49,28.95-56.99,64.62-56.99c11.45,0,22.17,2.61,31.52,7.26c-1.51-3.73-2.44-7.73-2.44-11.91
			c0-19.23,17.64-34.74,39.41-34.74c12.84,0,24.29,5.46,31.46,13.94c3.41-43.51,42.7-78.3,91.98-81.22
			c2.24-0.17,4.47-0.23,6.78-0.23c54.74,0,99.15,39.22,99.15,87.55c0,1.1-0.13,2.15-0.19,3.25c4.33-0.69,8.81-1.1,13.35-1.1
			C416.7,125.34,450,154.73,450,190.93z"/>
		<path class="st28" d="M450,190.93c0,18.12-8.3,34.56-21.78,46.42c-13.49,11.85-32.05,19.23-52.57,19.23h-119.1V35.86
			c2.24-0.17,4.47-0.23,6.78-0.23c54.74,0,99.15,39.22,99.15,87.55c0,1.1-0.13,2.15-0.19,3.25c4.33-0.69,8.81-1.1,13.35-1.1
			C416.7,125.34,450,154.73,450,190.93z"/>
		<path class="st7" d="M338.44,123.41h-9.68c0-31.97-29.46-57.98-65.68-57.98c-2.05,0-4.08,0.08-6.09,0.25l-0.91-8.51
			c2.31-0.19,4.64-0.28,6.99-0.28C304.64,56.88,338.44,86.72,338.44,123.41z"/>
	</g>
	<g class="st2">
		<g>
			<path class="st24" d="M214.56,350.87c-2.78,0-5.03-1.99-5.03-4.44v-65.14c0-2.45,2.26-4.44,5.03-4.44c2.78,0,5.03,1.99,5.03,4.44
				v65.14C219.6,348.88,217.34,350.87,214.56,350.87z"/>
			<path class="st24" d="M251.45,318.3h-73.79c-2.78,0-5.03-1.99-5.03-4.44c0-2.45,2.26-4.44,5.03-4.44h73.79
				c2.78,0,5.03,1.99,5.03,4.44C256.48,316.31,254.23,318.3,251.45,318.3z"/>
			<path class="st24" d="M240.65,341.34c-1.29,0-2.58-0.43-3.56-1.3l-52.18-46.08c-1.97-1.74-1.97-4.55,0-6.29
				c1.96-1.73,5.15-1.73,7.12,0l52.18,46.08c1.97,1.74,1.97,4.55,0,6.29C243.23,340.9,241.94,341.34,240.65,341.34z"/>
			<path class="st24" d="M188.47,341.34c-1.28,0-2.58-0.43-3.56-1.3c-1.97-1.74-1.97-4.55,0-6.29l52.18-46.08
				c1.97-1.73,5.15-1.73,7.12,0c1.97,1.74,1.97,4.55,0,6.29l-52.18,46.08C191.05,340.9,189.75,341.34,188.47,341.34z"/>
		</g>
		<g>
			<path class="st24" d="M98.98,350.87c-2.78,0-5.03-1.99-5.03-4.44v-65.14c0-2.45,2.26-4.44,5.03-4.44c2.78,0,5.03,1.99,5.03,4.44
				v65.14C104.01,348.88,101.76,350.87,98.98,350.87z"/>
			<path class="st24" d="M135.87,318.3H62.08c-2.78,0-5.03-1.99-5.03-4.44c0-2.45,2.26-4.44,5.03-4.44h73.79
				c2.78,0,5.03,1.99,5.03,4.44C140.9,316.31,138.65,318.3,135.87,318.3z"/>
			<path class="st24" d="M125.07,341.34c-1.28,0-2.58-0.43-3.56-1.3l-52.18-46.08c-1.97-1.74-1.97-4.55,0-6.29
				c1.97-1.73,5.15-1.73,7.12,0l52.18,46.08c1.96,1.74,1.96,4.55,0,6.29C127.65,340.9,126.36,341.34,125.07,341.34z"/>
			<path class="st24" d="M72.89,341.34c-1.29,0-2.58-0.43-3.56-1.3c-1.97-1.74-1.97-4.55,0-6.29l52.18-46.08
				c1.97-1.73,5.15-1.73,7.12,0c1.96,1.74,1.96,4.55,0,6.29l-52.18,46.08C75.47,340.9,74.18,341.34,72.89,341.34z"/>
		</g>
	</g>
	<g class="st2">
		<path class="st10" d="M383.23,272.79c0,22.78-20.96,41.24-46.77,41.24c-25.87,0-46.77-18.46-46.77-41.24
			c0-22.84,46.77-81.22,46.77-81.22S383.23,249.96,383.23,272.79z"/>
		<path class="st11" d="M383.23,272.79c0,22.78-20.96,41.24-46.77,41.24V191.58C336.46,191.58,383.23,249.96,383.23,272.79z"/>
		<path class="st7" d="M336.46,302.64v-5.7c15.12,0,27.41-10.84,27.41-24.15h6.45C370.33,289.25,355.13,302.64,336.46,302.64z"/>
	</g>
</g>
<g class="st0">
	<path class="st22" d="M259.87,334.61c-16.89,13.31-38.06,23.14-63.62,26.72c0,0,26.72-6.52,30.61-49.77
		c0.47-5.05-0.26-9.83-1.88-14.41c-11.29-32.29-66.53-54.79-66.53-84.31c0-0.87,128.45-51.01,147.86-9.18
		C320.5,235.84,306.09,298.25,259.87,334.61z"/>
	<path class="st22" d="M324.28,170.81c-81,9.42-149.5-11.12-153-45.87c-0.67-6.65,1.11-13.34,4.97-19.89
		c-49.76,8.86-85.29,32.14-85.29,59.47c0,34.95,58.1,63.28,129.78,63.28c70.14,0,127.25-27.14,129.65-61.07
		C341.95,168.39,333.23,169.77,324.28,170.81z"/>
	<path class="st22" d="M362.93,88.73c0,34.95-66.05,63.28-147.52,63.28c-81.47,0-147.52-28.33-147.52-63.28
		c0-34.95,66.05-63.28,147.52-63.28C296.88,25.45,362.93,53.78,362.93,88.73z"/>
	<g class="st2">
		<path class="st24" d="M350.39,166.73c-8.44,1.65-17.16,3.03-26.11,4.08c-42.17,4.89-80.89,1.65-108.86-7.46v64.38
			c1.77,0.04,3.54,0.07,5.32,0.07C290.88,227.8,347.99,200.65,350.39,166.73z"/>
		<path class="st24" d="M215.42,25.45v126.56c81.47,0,147.51-28.33,147.51-63.28C362.93,53.78,296.88,25.45,215.42,25.45z"/>
	</g>
	<path class="st5" d="M350.1,88.73h-8.55c0-9.39-39.32-40.32-126.14-40.32v-9.19C298.86,39.22,350.1,68.06,350.1,88.73z"/>
</g>
</svg>
